<?xml version="1.0"?>
<svg xmlns="http://www.w3.org/2000/svg" width="512" height="512" viewBox="0 0 512 512">
    <g>
        <path d="M232,304a8,8,0,0,0-8,8v64a8,8,0,0,0,16,0V312A8,8,0,0,0,232,304Z"/>
        <path d="M280,384a8,8,0,0,0,8-8V312a8,8,0,0,0-16,0v64A8,8,0,0,0,280,384Z"/>
        <path d="M424,248H312V224a8,8,0,0,0-8-8H280a8,8,0,0,0-8,8v24h-8V184a16,16,0,0,1,32,0v8a8,8,0,0,0,16,0v-8a32,32,0,0,0-64,0v64h-8V224a8,8,0,0,0-8-8H208a8,8,0,0,0-8,8v24H88a8,8,0,0,0-8,8v24a8,8,0,0,0,8,8h16V496a8,8,0,0,0,8,8h32a8,8,0,0,0,7.76-6.06L158.25,472h195.5l6.49,25.94A8,8,0,0,0,368,504h32a8,8,0,0,0,8-8V288h16a8,8,0,0,0,8-8V256A8,8,0,0,0,424,248ZM288,232h8v16h-8Zm-72,0h8v16h-8ZM137.75,488H120V472h21.75ZM248,456H120V288H248Zm144,32H374.25l-4-16H392Zm0-32H264V288H392Zm24-184H96v-8H416Z"/>
        <path d="M416,8H96a8,8,0,0,0-8,8V96a8,8,0,0,0,8,8H416a8,8,0,0,0,8-8V16A8,8,0,0,0,416,8ZM248,88H104V24H248Zm160,0H264V24H408Z"/>
        <path d="M280,72a8,8,0,0,0,8-8V48a8,8,0,0,0-16,0V64A8,8,0,0,0,280,72Z"/>
        <path d="M232,40a8,8,0,0,0-8,8V64a8,8,0,0,0,16,0V48A8,8,0,0,0,232,40Z"/>
    </g>
</svg>
