<?xml version="1.0" standalone="no"?>
<!DOCTYPE svg PUBLIC "-//W3C//DTD SVG 20010904//EN"
        "http://www.w3.org/TR/2001/REC-SVG-20010904/DTD/svg10.dtd">
<svg version="1.0" xmlns="http://www.w3.org/2000/svg"
     width="327.000000pt" height="225.000000pt" viewBox="0 0 327.000000 225.000000"
     preserveAspectRatio="xMidYMid meet">

    <g transform="translate(0.000000,225.000000) scale(0.100000,-0.100000)"
       fill="white" stroke="none">
        <path d="M1803 2229 c-73 -36 -125 -118 -167 -262 -38 -131 -49 -296 -43 -634
4 -248 9 -314 25 -391 39 -177 110 -285 206 -312 95 -26 158 1 221 96 20 30
38 54 40 52 2 -2 17 -37 33 -78 16 -41 35 -76 41 -78 8 -3 11 95 11 362 l0
366 30 0 c20 0 30 5 30 15 0 13 -23 15 -167 13 -104 -2 -168 -7 -168 -13 0 -5
15 -11 33 -13 l33 -3 -3 -331 -3 -330 -24 -19 c-33 -27 -66 -24 -91 8 -20 26
-20 28 -18 759 l3 732 24 26 c14 14 33 26 43 26 35 0 77 -30 102 -73 41 -70
85 -264 101 -442 8 -91 13 -115 25 -115 6 0 10 121 10 330 0 182 -4 330 -9
330 -4 0 -25 -25 -45 -56 l-37 -56 -36 41 c-63 74 -122 89 -200 50z"/>
        <path d="M777 2234 c-12 -12 4 -24 34 -24 16 0 29 -3 29 -6 0 -19 151 -1515
155 -1541 l6 -33 64 0 c59 0 65 2 70 23 2 12 43 348 91 747 89 752 95 784 142
805 12 5 22 16 22 23 0 10 -22 12 -92 10 -55 -2 -92 -7 -91 -13 1 -5 10 -12
20 -14 33 -6 53 -33 53 -71 0 -21 -27 -266 -60 -545 -33 -279 -60 -515 -61
-524 -2 -52 -13 58 -49 519 -22 283 -42 539 -45 568 l-6 52 40 0 c30 0 41 4
41 15 0 13 -26 15 -178 15 -98 0 -182 -3 -185 -6z"/>
        <path d="M2430 2225 c0 -10 11 -15 35 -15 l35 0 0 -746 c0 -492 -3 -752 -10
-765 -6 -10 -24 -26 -40 -34 -54 -28 -35 -36 75 -33 104 3 138 16 74 29 -68
14 -64 -34 -66 727 -1 378 0 683 2 677 3 -5 36 -311 74 -680 39 -369 73 -689
76 -712 l6 -43 44 0 c38 0 45 3 50 23 3 12 46 341 96 732 49 390 92 711 94
714 3 2 5 -320 5 -717 l0 -722 -45 0 c-33 0 -45 -4 -45 -15 0 -13 27 -15 185
-15 158 0 185 2 185 15 0 10 -11 15 -35 15 l-35 0 0 775 0 775 40 0 c29 0 40
4 40 15 0 13 -24 15 -154 15 l-153 0 -18 -132 c-30 -231 -113 -833 -114 -827
-1 7 -101 951 -101 956 0 2 -67 3 -150 3 -127 0 -150 -2 -150 -15z"/>
        <path d="M280 2216 c0 -10 -171 -1350 -180 -1409 -13 -86 -33 -126 -71 -139
-16 -5 -29 -16 -29 -24 0 -11 22 -14 105 -14 80 0 105 3 105 13 0 7 -15 20
-32 28 -54 23 -62 52 -47 179 l12 110 98 0 97 0 5 -42 c4 -24 9 -79 12 -123 3
-44 8 -92 11 -107 5 -24 2 -27 -28 -30 -18 -2 -32 -7 -30 -13 1 -6 65 -10 167
-10 102 0 166 4 168 10 1 6 -10 11 -25 13 -16 2 -28 5 -28 6 0 9 -181 1488
-186 1519 l-6 37 -59 0 c-32 0 -59 -2 -59 -4z m15 -811 c19 -198 35 -372 35
-387 l0 -28 -90 0 c-50 0 -90 3 -90 6 0 4 96 752 101 791 3 22 12 -51 44 -382z"/>
        <path d="M923 523 c16 -4 17 -25 17 -258 0 -233 -1 -254 -17 -258 -10 -3 28
-5 83 -6 l101 -1 5 103 c3 56 4 103 3 105 -2 2 -8 -25 -14 -59 -14 -81 -40
-133 -68 -137 l-23 -3 0 255 c0 234 1 255 18 259 9 3 -14 5 -53 5 -38 0 -62
-2 -52 -5z"/>
        <path d="M1472 413 c0 -65 3 -102 5 -83 7 59 33 163 44 177 7 7 15 13 20 13 5
0 9 -114 9 -254 l0 -255 -22 -4 c-13 -2 11 -4 52 -4 41 -1 67 1 58 4 -17 4
-18 25 -18 259 0 251 6 293 31 227 6 -16 19 -66 29 -113 l18 -85 1 118 1 117
-115 0 -115 0 2 -117z"/>
        <path d="M2083 524 c16 -5 17 -26 17 -259 0 -233 -1 -254 -17 -259 -10 -3 17
-4 61 -3 71 2 80 5 101 29 31 36 45 108 45 233 0 125 -14 197 -45 233 -21 24
-30 27 -101 29 -44 1 -71 0 -61 -3z m122 -259 c0 -230 -1 -250 -17 -253 -17
-3 -18 14 -18 253 0 239 1 256 18 253 16 -3 17 -23 17 -253z"/>
    </g>
</svg>
