<?xml version="1.0" standalone="no"?>
<!DOCTYPE svg PUBLIC "-//W3C//DTD SVG 20010904//EN"
 "http://www.w3.org/TR/2001/REC-SVG-20010904/DTD/svg10.dtd">
<svg version="1.0" xmlns="http://www.w3.org/2000/svg"
 width="2000.000000pt" height="1500.000000pt" viewBox="0 0 2000.000000 1500.000000"
 preserveAspectRatio="xMidYMid meet">

<g transform="translate(0.000000,1500.000000) scale(0.100000,-0.100000)"
fill="#000000" stroke="none">
<path d="M9405 14893 c-229 -28 -526 -139 -865 -322 -82 -45 -153 -81 -159
-81 -12 0 -131 157 -131 174 0 6 18 30 40 51 22 21 40 43 40 47 0 12 -60 10
-122 -3 -75 -16 -118 -61 -118 -122 0 -43 3 -48 63 -102 150 -136 380 -265
937 -525 435 -203 541 -256 547 -275 2 -6 -20 -28 -48 -50 -69 -54 -164 -174
-230 -292 -31 -54 -104 -201 -164 -328 -59 -126 -159 -338 -222 -470 -167
-348 -253 -561 -241 -597 7 -19 144 151 265 327 215 313 265 369 381 433 l60
32 97 -102 c155 -163 146 -143 129 -273 -30 -235 -75 -426 -218 -925 -209
-732 -209 -732 -256 -1803 -11 -241 -23 -443 -26 -449 -4 -6 -11 -174 -16
-372 -4 -199 -12 -415 -17 -481 -5 -66 -10 -430 -10 -810 -1 -670 0 -691 19
-715 26 -33 25 -49 -2 -59 -19 -7 -28 0 -63 43 -206 254 -451 633 -712 1101
-336 603 -431 788 -546 1060 -254 606 -440 1308 -503 1905 -35 339 -40 498
-20 725 9 105 21 249 27 320 13 167 44 372 75 505 32 137 69 248 169 510 88
229 129 351 145 441 10 52 8 60 -20 120 -47 101 -70 207 -70 323 0 129 11 172
113 451 92 251 99 275 87 275 -5 0 -46 -23 -91 -51 -46 -28 -215 -128 -377
-221 -309 -178 -510 -305 -602 -381 -30 -25 -111 -112 -180 -193 -192 -226
-278 -283 -715 -470 -274 -117 -397 -161 -617 -219 -210 -55 -911 -197 -1228
-249 -85 -14 -281 -46 -435 -71 -518 -85 -768 -141 -892 -201 -92 -44 -189
-133 -231 -211 -38 -72 -83 -219 -117 -383 -34 -161 -96 -408 -185 -734 -88
-325 -188 -757 -280 -1211 -39 -192 -86 -404 -105 -470 -90 -309 -87 -380 24
-535 l59 -83 -15 -51 c-25 -87 -33 -96 -143 -156 -173 -96 -212 -139 -191
-212 13 -42 61 -88 131 -123 40 -20 50 -30 50 -50 0 -36 -27 -99 -86 -198 -61
-103 -65 -119 -99 -347 -14 -96 -75 -420 -135 -720 -182 -909 -285 -1584 -325
-2120 -19 -260 -38 -413 -134 -1115 -65 -470 -94 -823 -108 -1276 -8 -262 16
-382 116 -594 55 -117 202 -364 309 -520 141 -207 437 -594 646 -848 l89 -107
8087 0 8087 0 109 96 c60 52 166 145 236 205 70 61 129 118 132 127 3 9 19
118 36 242 17 124 45 324 63 445 l32 220 0 545 c-1 476 -15 946 -30 970 -3 5
-12 118 -20 252 -14 226 -29 421 -55 728 -14 174 -48 475 -66 595 -71 481 -73
495 -124 1175 -31 399 -65 712 -101 914 -23 130 -63 256 -131 416 -63 145
-108 266 -108 288 0 13 30 30 110 62 61 24 110 47 110 52 0 4 -10 38 -22 75
-19 59 -33 79 -101 148 -99 100 -132 165 -124 238 9 71 62 175 148 292 41 55
85 114 97 132 l22 32 -32 31 c-44 41 -129 91 -233 136 l-85 36 0 187 c0 198
-16 344 -124 1151 -81 604 -119 925 -156 1326 -14 150 -41 249 -105 379 -88
181 -221 327 -375 413 -90 51 -133 61 -298 72 -545 36 -1081 116 -1704 255
-971 217 -1395 364 -1751 608 -112 76 -242 190 -308 270 -165 198 -254 278
-559 507 -107 80 -298 225 -425 321 -259 199 -378 281 -498 344 -131 70 -337
143 -337 121 0 -4 7 -21 16 -39 31 -60 113 -154 238 -271 204 -191 276 -296
276 -402 0 -31 -14 -116 -31 -188 -27 -116 -30 -141 -24 -216 4 -52 15 -100
26 -123 11 -20 58 -69 104 -109 47 -39 96 -88 109 -107 27 -39 67 -187 88
-321 18 -123 14 -912 -7 -1187 -95 -1252 -317 -2436 -636 -3387 -168 -501
-369 -926 -568 -1196 -63 -87 -278 -310 -298 -310 -11 0 -13 121 -13 688 0
448 -4 708 -11 747 -6 33 -14 238 -19 455 -5 217 -13 463 -19 545 -33 472 -41
532 -136 1090 -81 468 -116 645 -200 996 -36 151 -88 366 -115 479 -82 344
-100 492 -67 556 16 31 108 121 154 152 23 14 26 13 59 -19 72 -68 170 -200
339 -454 95 -143 194 -287 220 -320 53 -68 53 -67 5 90 -55 180 -183 493 -333
817 -92 197 -257 461 -470 750 -64 87 -113 159 -109 161 4 3 39 15 77 27 304
99 932 416 1172 591 64 47 219 194 235 222 22 41 -121 277 -167 277 -16 0 -11
-16 58 -177 40 -92 42 -86 -43 -128 -86 -43 -105 -39 -296 62 -211 113 -327
165 -474 213 -193 64 -253 70 -679 69 -207 -1 -389 -4 -406 -6z"/>
</g>
</svg>
