<?xml version="1.0" encoding="UTF-8" standalone="no"?>
<svg xmlns:svg="http://www.w3.org/2000/svg" xmlns="http://www.w3.org/2000/svg" viewBox="0 0 4600 960" height="96" width="480" version="1.1">
   <g transform="matrix(1.3333333,0,0,-1.3333333,0,810)" fill="#002755">
    <path d="M 514.934,205.816 C 514.934,358.211 370.367,412.48 258.465,412.48 123.797,412.48 0,341.855 0,206.691 0,81.7969 108.941,0 258.465,0 359.488,0 514.934,48.2188 514.934,205.816 Z m -153.485,3.438 c 0,-86.969 -35.648,-135.1876 -102.984,-135.1876 -54.442,0 -104.957,30.1246 -104.957,132.6246 0,89.536 42.582,131.719 104.957,131.719 72.305,0 102.984,-51.656 102.984,-129.156" />
    <path d="M 719.223,404.723 H 575.648 V 7.75781 H 719.223 V 263.512 c 37.613,49.07 64.351,65.41 100.019,65.41 40.598,0 71.309,-23.242 71.309,-79.207 V 7.75781 H 1034.13 V 260.055 c 0,117.113 -95.071,152.425 -166.38,152.425 -58.426,0 -102.98,-18.949 -148.527,-64.585 v 56.828" />
    <path d="M 1261.02,404.723 H 1117.43 V 7.75781 h 143.59 V 263.512 c 37.62,49.07 64.35,65.41 100.02,65.41 40.6,0 71.3,-23.242 71.3,-79.207 V 7.75781 h 143.58 V 260.055 c 0,117.113 -95.08,152.425 -166.35,152.425 -58.45,0 -103,-18.949 -148.55,-64.585 v 56.828" />
    <path d="m 1656.23,7.75781 h 143.54 V 404.723 h -143.54 z m 71.29,595.02719 c -43.57,0 -79.24,-31.023 -79.24,-68.898 0,-37.875 35.67,-68.875 79.24,-68.875 43.56,0 79.22,31 79.22,68.875 0,37.875 -35.66,68.898 -79.22,68.898" />
    <path d="m 2023.31,404.723 h -143.6 V 7.75781 h 143.6 V 263.512 c 37.62,49.07 64.35,65.41 99.99,65.41 40.61,0 71.31,-23.242 71.31,-79.207 V 7.75781 h 143.6 V 260.055 c 0,117.113 -95.08,152.425 -166.37,152.425 -58.45,0 -103.01,-18.949 -148.53,-64.585 v 56.828" />
    <path d="m 2857.14,130.891 c -67.34,-42.1879 -111.9,-56.8246 -169.32,-56.8246 -90.12,0 -145.61,41.3166 -150.55,111.9496 h 327.8 c 6.94,144.64 -103,226.464 -235.7,226.464 -140.6,0 -240.64,-86.117 -240.64,-207.523 C 2388.73,80.9492 2492.71,0 2653.13,0 c 35.66,0 121.82,0 204.01,52.5352 z m -316.9,120.554 c 5.97,55.114 42.62,86.965 99.04,86.965 55.45,0 93.09,-32.73 99.02,-86.965 h -198.06" />
    <path d="M 3066.02,404.723 H 2922.44 V 7.75781 h 143.58 V 263.512 c 37.62,49.07 64.37,65.41 100.03,65.41 40.59,0 71.27,-23.242 71.27,-79.207 V 7.75781 h 143.62 V 260.055 c 0,117.113 -95.05,152.425 -166.37,152.425 -58.43,0 -102.98,-18.949 -148.55,-64.585 v 56.828" />
  </g>
</svg>