<?xml version="1.0"?>
<svg xmlns="http://www.w3.org/2000/svg" viewBox="0 0 64 64" width="512" height="512">
    <g id="oven-food-cooking">
        <path d="M59,2H5A3.009,3.009,0,0,0,2,5V58a1,1,0,0,0,1,1H5v2a1,1,0,0,0,1,1h8a1,1,0,0,0,1-1V59H49v2a1,1,0,0,0,1,1h8a1,1,0,0,0,1-1V59h2a1,1,0,0,0,1-1V5A3.009,3.009,0,0,0,59,2ZM13,60H7V59h6Zm44,0H51V59h6Zm3-3H4V15H60Zm0-44H4V5A1,1,0,0,1,5,4H59a1,1,0,0,1,1,1Z"/>
        <path d="M11,11A3,3,0,1,0,8,8,3,3,0,0,0,11,11Zm0-4a1,1,0,1,1-1,1A1,1,0,0,1,11,7Z"/>
        <path d="M19,11a3,3,0,1,0-3-3A3,3,0,0,0,19,11Zm0-4a1,1,0,1,1-1,1A1,1,0,0,1,19,7Z"/>
        <path d="M27,11a3,3,0,1,0-3-3A3,3,0,0,0,27,11Zm0-4a1,1,0,1,1-1,1A1,1,0,0,1,27,7Z"/>
        <path d="M56,18H8a1,1,0,0,0-1,1V53a1,1,0,0,0,1,1H56a1,1,0,0,0,1-1V19A1,1,0,0,0,56,18ZM55,52H9V20H55Z"/>
        <path d="M52,44H48.93a16.843,16.843,0,0,0-4.1-9.63l1.62-2.81A3,3,0,0,0,50,28.61a3.02,3.02,0,0,0-3.62-2.94,2.969,2.969,0,0,0-1.34-1.65,3.012,3.012,0,0,0-4.11,1.09,2.953,2.953,0,0,0-.29,2.27,3.043,3.043,0,0,0,.62,1.18l-1.16,2A16.978,16.978,0,0,0,15.08,44H12a1,1,0,0,0-1,1v2a3.009,3.009,0,0,0,3,3H50a3.009,3.009,0,0,0,3-3V45A1,1,0,0,0,52,44ZM43.51,28.08a1,1,0,0,0-.47-.61.964.964,0,0,1-.47-.61,1,1,0,1,1,1.83.25,1,1,0,0,0,1.74,1,.973.973,0,0,1,1.36-.36.995.995,0,1,1-1,1.72,1.01,1.01,0,0,0-1.37.37l-1.74,3.03c-.11-.1-.23-.18-.34-.27-.24-.21-.49-.4-.74-.59-.17-.13-.33-.28-.5-.4l1.6-2.77A1.007,1.007,0,0,0,43.51,28.08ZM32,30.5a14.984,14.984,0,0,1,10.88,4.67h.01A14.927,14.927,0,0,1,46.92,44H22.06a9.907,9.907,0,0,1,3.95-7.01l-1.2-1.6A11.881,11.881,0,0,0,20.06,44H17.08A15.008,15.008,0,0,1,32,30.5ZM51,47a1,1,0,0,1-1,1H14a1,1,0,0,1-1-1V46H51Z"/>
    </g>
</svg>
