<svg xmlns="http://www.w3.org/2000/svg" viewBox="0 0 262.72 24.84"><defs><style>.cls-1{fill:#4c9d2f;}.cls-2{fill:#fff;}.cls-3{fill:#3b3c3d;}</style></defs><title>Savaterra</title><g id="Layer_2"><g id="Pantone_RGB_" ><rect class="cls-1" y="0.18" width="38.44" height="24.67"/><path class="cls-2" d="M32.69,12.1,28.91,3.79,19.34.18,9.77,3.79,6,12.1l-6,.15v.68H6l3.77,8.3,9.57,3.61,9.57-3.61,3.77-8.3h5.75v-.68Zm-4.38,8.57-9,3.39-9-3.39L6.65,12.5l3.72-8.18,9-3.39,9,3.39L32,12.5Z"/><path class="cls-2" d="M27.41,11.88A1.75,1.75,0,0,0,27,10.81a1.68,1.68,0,0,0-1-.55h-9.4c-.71,0-.63-1.08-.06-1.08h10.9V7.07H14.51a.53.53,0,0,0-.39.19A.61.61,0,0,0,14,7.7s0,3.24,0,3.24v1a.43.43,0,0,0,.42.4h10a1.13,1.13,0,0,1,.65.29,1,1,0,0,1,.29.62s0,4.33,0,4.33a1,1,0,0,1-.85,1H11.27v2.08H25.92a1.86,1.86,0,0,0,1.5-1.52Z"/><path class="cls-2" d="M22.24,16l-11,0v2H24.35c.22,0,.42-.31.42-.46v-4.2a.7.7,0,0,0-.48-.53h-10a1,1,0,0,1-.91-.85V7.37a1,1,0,0,1,.27-.63.84.84,0,0,1,.67-.29l13.05,0V4.33H12.8A1.54,1.54,0,0,0,11.26,6s0,7,0,7a1.87,1.87,0,0,0,1.48,1.88h9.5C22.83,14.93,22.81,16,22.24,16Z"/><polyline class="cls-3" points="163.58 0 141.89 0 141.89 5.09 149.71 5.09 149.71 24.66 155.72 24.66 155.72 5.09 163.58 5.09"/><path class="cls-3" d="M66.38,10.17H59.57l-.88-.23-.95-.73-.3-.92V8a2.15,2.15,0,0,1,.85-2l.41-.37.88-.39.27-.07,13.21,0v-5H59.84l-1,0L57.1.38l-.82.23-.75.27-1.24.62C52.41,2.65,51.68,5.18,51.62,7a7.46,7.46,0,0,0,1.58,6c1.36,1.49,3.46,2.24,6.26,2.24h6l1.35.25.43.24a1.64,1.64,0,0,1,.87,1.73,1.55,1.55,0,0,1-.68,1.52l-.47.24-1.25.34-13.23,0v5H65.74l1,0,1.77-.23.82-.22,1.44-.55.57-.34c1.56-.89,2.51-2.77,2.68-5.28v0c.08-3-.41-4.87-1.61-6.07S69.34,10.12,66.38,10.17Z"/><polygon class="cls-3" points="116.6 0.01 109.89 16.44 103.44 0.01 96.9 0.01 107.02 24.3 107.17 24.67 112.87 24.67 122.79 0.01 116.6 0.01"/><path class="cls-3" d="M90.76,0h-6L74.85,24.67H81L83.26,19H92.2l1.94,5.69H101L90.91.37ZM84.18,14.35l3.59-9,3.26,9Z"/><path class="cls-3" d="M135.45.37,135.3,0h-6l-9.87,24.66h6.15L127.8,19h8.94l1.94,5.69h6.88Zm-6.73,14,3.59-9,3.26,9Z"/><path class="cls-3" d="M252.61.37,252.46,0h-6l-9.87,24.66h6.15L245,19h8.94l1.94,5.69h6.88Zm-6.73,14,3.59-9,3.26,9Z"/><path class="cls-3" d="M186.52,19.62l-13.85,0h0a.44.44,0,0,1-.35-.13,1.44,1.44,0,0,1-.23-.92V14.52h14.46V9.43H172.09V6.06c0-.94.53-1,.67-1.05h13.79V0H168.69l-1,.09-.65.46-.5.66-.25,1.14v20a2.27,2.27,0,0,0,.7,1.8,2.1,2.1,0,0,0,1.36.48h18.18Z"/><path class="cls-3" d="M200.6,10.68h-5.84V5h5.85c1.39,0,3.85,0,3.85,2.67,0,3-2.48,3-3.85,3M201.68,0H189.31V24.66h5.46V15.41h5l5.67,9.25h6.13l-6-10.21c6.53-1,8.29-14.45-3.89-14.45"/><path class="cls-3" d="M224.6,10.68h-5.84V5h5.85c1.39,0,3.85,0,3.85,2.67,0,3-2.48,3-3.85,3M225.68,0H213.31V24.66h5.46V15.41h5l5.67,9.25h6.13l-6-10.21c6.53-1,8.29-14.45-3.89-14.45"/></g></g></svg>