<svg height="512pt" viewBox="-20 0 512 512" width="512pt" xmlns="http://www.w3.org/2000/svg">
    <path d="m422 0h-130c-27.570312 0-50 22.429688-50 50v160c0 27.570312 22.429688 50 50 50h30v30c0 15.65625 7.476562 30.609375 20 40l20 15v117c0 27.570312 22.429688 50 50 50s50-22.429688 50-50v-204.707031c5.96875-3.464844 10-9.910157 10-17.292969v-190c0-27.570312-22.429688-50-50-50zm-100 240h-30c-16.542969 0-30-13.457031-30-30v-160c0-16.542969 13.457031-30 30-30h30zm70-101.324219c.011719 0 .023438-.003906.035156-.007812 3.945313-1.007813 7.730469-2.484375 11.511719-3.972657 6.136719-2.414062 11.933594-4.695312 18.453125-4.695312 6.339844 0 11.585938 2.101562 17.65625 4.53125 3.980469 1.597656 8.019531 3.167969 12.191406 4.1875.050782.011719.101563.027344.152344.042969v101.238281h-30c-16.542969 0-30-13.457031-30-30zm60-88.675781v67.863281c-.042969-.429687-4.433594-1.707031-4.90625-1.894531-6.984375-2.796875-14.898438-5.96875-25.09375-5.96875-10.3125 0-18.527344 3.230469-25.773438 6.082031-1.335937.527344-2.671874 1.050781-4.019531 1.550781-.070312.023438-.136719.046876-.207031.074219v-97.707031h30c16.542969 0 30 13.457031 30 30zm-10 412c0 16.542969-13.457031 30-30 30s-30-13.457031-30-30v-10h60zm-60-30v-83c3.355469-.679688 6.632812-1.707031 9.808594-3.082031 6.0625-2.617188 11.460937-6.339844 16.050781-11.070313 1.859375-1.917968 2.859375-4.4375 2.820313-7.109375-.03125-2.679687-1.109376-5.167969-3.03125-7.027343-1.867188-1.832032-4.347657-2.832032-6.957032-2.832032-2.730468 0-5.28125 1.070313-7.179687 3.03125-4.976563 5.105469-11.417969 8.210938-18.394531 8.929688l-21.117188-15.839844c-7.515625-5.636719-12-14.605469-12-24v-270h30v190c0 27.570312 22.429688 50 50 50h20v172zm0 0"/>
    <path d="m432 170c0 5.523438-4.476562 10-10 10s-10-4.476562-10-10 4.476562-10 10-10 10 4.476562 10 10zm0 0"/>
    <path d="m432 210c0 5.523438-4.476562 10-10 10s-10-4.476562-10-10 4.476562-10 10-10 10 4.476562 10 10zm0 0"/>
    <path d="m302 210c0 5.523438-4.476562 10-10 10s-10-4.476562-10-10 4.476562-10 10-10 10 4.476562 10 10zm0 0"/>
    <path d="m302 130c0 5.523438-4.476562 10-10 10s-10-4.476562-10-10 4.476562-10 10-10 10 4.476562 10 10zm0 0"/>
    <path d="m302 170c0 5.523438-4.476562 10-10 10s-10-4.476562-10-10 4.476562-10 10-10 10 4.476562 10 10zm0 0"/>
    <path d="m302 90c0 5.523438-4.476562 10-10 10s-10-4.476562-10-10 4.476562-10 10-10 10 4.476562 10 10zm0 0"/>
    <path d="m302 50c0 5.523438-4.476562 10-10 10s-10-4.476562-10-10 4.476562-10 10-10 10 4.476562 10 10zm0 0"/>
    <path d="m412 280.859375c-5.511719 0-10 4.480469-10 10 0 5.511719 4.488281 10 10 10s10-4.488281 10-10c0-5.519531-4.488281-10-10-10zm0 0"/>
    <path d="m126 92h4c5.523438 0 10-4.476562 10-10s-4.476562-10-10-10h-4c-14.335938 0-26-11.664062-26-26s11.664062-26 26-26h20.609375c7.007813 0 13.921875 1.851562 19.992187 5.351562l40.402344 23.3125c4.78125 2.757813 10.898438 1.117188 13.65625-3.667968 2.761719-4.78125 1.121094-10.898438-3.664062-13.65625l-40.402344-23.3125c-9.105469-5.25-19.472656-8.027344-29.984375-8.027344h-20.609375c-25.363281 0-46 20.636719-46 46s20.636719 46 46 46zm0 0"/>
    <path d="m119.976562 288.183594c-.960937-.125-1.941406-.183594-2.914062-.183594-9.40625 0-17.0625-7.652344-17.0625-17.0625 0-8.816406 6.882812-16.289062 15.671875-17.007812l97.144531-7.960938c5.503906-.453125 9.601563-5.28125 9.152344-10.785156-.453125-5.503906-5.285156-9.601563-10.785156-9.148438l-97.148438 7.960938c-19.085937 1.566406-34.035156 17.789062-34.035156 36.941406 0 20.433594 16.628906 37.0625 37.0625 37.0625 6.261719 0 12.9375-2.375 12.9375-10 0-6.367188-4.734375-9.117188-10.023438-9.816406zm0 0"/>
    <path d="m131 170h8.730469c10.199219 0 19.253906 5.597656 25.21875 13.648438.5.699218 1.039062 1.390624 1.652343 2.109374 3.511719 4.148438 9.925782 4.746094 14.089844 1.210938 4.167969-3.539062 4.734375-9.886719 1.207032-14.089844-.296876-.359375-.566407-.695312-.824219-1.042968-9.855469-13.257813-24.542969-21.835938-41.34375-21.835938 0 0-8.726563 0-8.730469 0-16.902344 0-31 14.113281-31 31 0 16.878906 14.152344 31 31 31 5.511719 0 10-4.488281 10-10s-4.480469-9.988281-10-10c-6.050781-.011719-10.988281-4.949219-11-11 .011719-6.050781 4.949219-10.988281 11-11zm0 0"/>
    <path d="m211.070312 180c-5.511718 0-10 4.488281-10 10s4.488282 10 10 10c5.519532 0 10-4.488281 10-10s-4.480468-10-10-10zm0 0"/>
    <path d="m61.878906 20.019531c.109375 0 .222656 0 .339844-.007812 5.511719-.183594 9.839844-4.8125 9.660156-10.320313-.089844-2.621094-1.167968-5.050781-3.050781-6.871094-1.949219-1.878906-4.539063-2.8906245-7.289063-2.8007808-2.667968.1015628-5.140624 1.2226568-6.960937 3.1718748-1.816406 1.949219-2.777344 4.488282-2.6875 7.160156.175781 5.304688 4.6875 9.667969 9.988281 9.667969zm0 0"/>
    <path d="m40.527344 111.472656c6.355468 6.351563 13.90625 11.503906 22.222656 15.027344 18.15625 7.695312 38.882812 5.5 58.179688 5.5 9.46875 0 18.941406-2.289062 27.378906-6.609375 12.761718-6.546875 24.703125-12.828125 39.492187-9.128906l21.769531 5.4375c5.300782 1.320312 10.808594-1.964844 12.128907-7.269531 1.316406-5.285157-2.015625-10.8125-7.277344-12.128907l-21.773437-5.453125c-4.757813-1.1875-9.648438-1.789062-14.546876-1.789062-14.433593 0-26.445312 6.140625-38.921874 12.53125-5.621094 2.890625-11.941407 4.410156-18.25 4.410156h-30.929688c-13.339844-.011719-25.898438-5.210938-35.359375-14.640625-9.429687-9.460937-14.640625-22.019531-14.640625-35.359375v-19c0-2.519531.398438-5 1.199219-7.351562 1.761719-5.226563-1.058594-10.917969-6.277344-12.679688-1.042969-.351562-2.113281-.519531-3.203125-.519531-4.289062 0-8.097656 2.730469-9.46875 6.800781-1.5 4.429688-2.25 9.050781-2.25 13.75v19c0 9.449219 1.851562 18.621094 5.5 27.25 3.519531 8.320312 8.675781 15.871094 15.027344 22.222656zm0 0"/>
    <path d="m226 261h-.058594c-11.820312 0-22.902344 1.988281-32.921875 5.898438-5.082031 1.984374-7.660156 7.882812-5.679687 12.960937 1.972656 5.058594 7.902344 7.65625 12.949218 5.667969 7.722657-3 16.371094-4.527344 25.710938-4.527344 5.511719 0 10-4.492188 10-10 0-5.511719-4.488281-10-10-10zm0 0"/>
    <path d="m170.890625 292.179688c-1.480469-.820313-3.160156-1.25-4.839844-1.25-3.597656 0-7 1.992187-8.75 5.140624-2.640625 4.75-.835937 10.976563 3.890625 13.601563 4.671875 2.59375 10.914063.925781 13.589844-3.890625 2.679688-4.820312.929688-10.921875-3.890625-13.601562zm0 0"/>
    <path d="m19.640625 243.738281c-.785156-.007812-1.578125.078125-2.359375.273438-5.273438 1.300781-8.636719 6.78125-7.371094 12.066406 1.265625 5.292969 6.816406 8.648437 12.078125 7.363281 5.363281-1.300781 8.660157-6.710937 7.363281-12.070312-1.070312-4.410156-5.277343-7.570313-9.710937-7.632813zm0 0"/>
    <path d="m68.710938 150.050781c-.894532-.027343-1.789063.070313-2.660157.308594 0 0-26.984375 7.429687-26.992187 7.429687-22.699219 6.25-39.058594 27.691407-39.058594 51.230469 0 2.371094.160156 4.78125.480469 7.152344.679687 4.929687 4.929687 8.648437 9.898437 8.648437 5.851563 0 10.742188-5.363281 9.921875-11.351562-.199219-1.480469-.300781-2.980469-.300781-4.449219.011719-14.878906 10.03125-28.019531 24.371094-31.949219 0 0 26.917968-7.414062 26.980468-7.429687 5.25-1.449219 8.429688-7.0625 6.988282-12.300781-1.148438-4.175782-5.347656-7.164063-9.628906-7.289063zm0 0"/>
</svg>