<?xml version="1.0" standalone="no"?>
<!DOCTYPE svg PUBLIC "-//W3C//DTD SVG 20010904//EN"
        "http://www.w3.org/TR/2001/REC-SVG-20010904/DTD/svg10.dtd">
<svg version="1.0" xmlns="http://www.w3.org/2000/svg"
     width="359.000000pt" height="359.000000pt" viewBox="0 0 359.000000 359.000000"
     preserveAspectRatio="xMidYMid meet">
    <metadata>
        Created by potrace 1.11, written by Peter Selinger 2001-2013
    </metadata>
    <g transform="translate(0.000000,359.000000) scale(0.100000,-0.100000)"
       fill="#000000" stroke="none">
        <path d="M1580 3524 c-344 -52 -647 -187 -889 -398 -116 -100 -269 -278 -342
-396 -104 -167 -215 -449 -235 -598 -3 -26 -8 -50 -10 -54 -10 -16 -19 -172
-18 -308 0 -172 9 -245 46 -395 19 -78 50 -180 68 -220 5 -11 23 -54 40 -95
17 -41 37 -81 44 -90 6 -8 25 -40 41 -70 15 -30 31 -57 35 -60 3 -3 20 -26 37
-52 17 -26 43 -64 59 -85 43 -56 212 -225 269 -269 28 -21 52 -41 55 -44 9 -9
101 -70 105 -70 3 0 29 -16 59 -35 30 -19 58 -35 62 -35 4 0 34 -13 68 -29
136 -66 371 -133 556 -160 214 -31 525 8 767 98 78 29 226 100 273 131 14 10
52 35 85 56 75 49 218 166 265 218 19 22 42 47 50 55 72 74 201 263 265 391
74 148 131 325 161 495 20 115 27 372 13 485 -54 451 -267 851 -610 1147 -55
47 -215 155 -293 198 -301 163 -702 237 -1026 189z m-1185 -2074 c3 -5 1 -10
-4 -10 -6 0 -11 5 -11 10 0 6 2 10 4 10 3 0 8 -4 11 -10z"/>
    </g>
</svg>
